<?xml version="1.0" standalone="no"?>
<!DOCTYPE svg PUBLIC "-//W3C//DTD SVG 20010904//EN"
 "http://www.w3.org/TR/2001/REC-SVG-20010904/DTD/svg10.dtd">
<svg version="1.0" xmlns="http://www.w3.org/2000/svg"
 width="1472.000000pt" height="832.000000pt" viewBox="0 0 1472.000000 832.000000"
 preserveAspectRatio="xMidYMid meet">

<g transform="translate(0.000000,832.000000) scale(0.100000,-0.100000)"
fill="#000000" stroke="none">
<path d="M3783 4673 c-3 -10 -17 -42 -30 -72 -12 -29 -23 -57 -23 -62 0 -4 14
-30 30 -56 17 -27 70 -167 119 -311 l88 -262 -184 0 c-200 0 -199 0 -169 58
21 41 123 332 130 372 6 36 -9 80 -30 87 -13 4 -57 -96 -183 -417 -44 -113
-105 -268 -136 -345 -31 -77 -59 -148 -62 -157 -5 -16 3 -18 77 -18 74 0 81 2
74 18 -21 48 -15 88 31 197 25 61 51 115 56 120 7 7 19 0 37 -21 44 -52 77
-68 145 -68 84 0 132 18 183 70 l42 44 16 -42 c9 -24 38 -104 64 -178 l47
-135 177 -3 177 -2 -24 57 c-26 65 -222 593 -343 923 l-78 215 -112 3 c-100 2
-113 1 -119 -15z"/>
<path d="M4568 4262 c-1 -235 -2 -505 -2 -599 l-1 -173 163 0 162 0 -2 597 -3
596 -157 3 -158 3 -2 -427z"/>
<path d="M7663 4639 c-18 -5 -48 -25 -67 -44 -85 -85 -39 -224 81 -244 88 -15
162 25 185 100 22 75 -12 146 -86 180 -45 20 -65 22 -113 8z"/>
<path d="M8845 4589 c-69 -10 -109 -25 -127 -47 -8 -9 -15 -60 -18 -141 l-5
-126 -42 3 -43 4 0 -52 0 -52 45 6 45 7 0 -254 c0 -292 6 -330 67 -389 52 -50
99 -68 181 -68 119 0 222 73 222 157 l0 32 -36 -24 c-64 -43 -123 -25 -165 49
-22 39 -24 54 -27 264 l-4 222 104 0 105 0 11 39 c20 67 24 65 -103 58 l-115
-5 0 164 c0 150 -1 164 -17 163 -10 -1 -45 -5 -78 -10z"/>
<path d="M11005 4585 c-138 -25 -151 -45 -140 -206 l7 -99 -66 0 -67 0 3 -47
3 -47 57 1 57 2 3 -272 c4 -306 6 -316 77 -380 88 -80 260 -79 344 1 36 34 57
73 57 106 0 37 -19 42 -44 12 -29 -37 -81 -43 -124 -16 -57 35 -62 63 -62 315
l0 225 95 0 95 0 25 50 25 50 -118 0 -119 0 -7 61 c-3 34 -6 106 -6 160 0 73
-3 99 -12 98 -7 0 -44 -7 -83 -14z"/>
<path d="M5640 4573 c-9 -2 -30 -40 -48 -85 l-32 -81 29 -33 c21 -23 46 -85
91 -221 34 -103 69 -200 76 -215 9 -17 10 -29 4 -33 -11 -6 -291 -6 -302 1 -4
3 15 66 41 142 27 75 54 164 61 196 11 54 11 61 -6 73 -10 7 -20 13 -24 13 -8
0 -90 -200 -217 -530 -13 -36 -46 -120 -73 -187 l-48 -123 74 0 74 0 -10 26
c-16 42 -12 60 41 191 l52 125 39 -41 c78 -80 213 -82 296 -4 19 18 37 31 40
29 5 -5 78 -210 98 -278 l15 -48 136 0 c124 0 135 1 130 18 -6 19 -172 487
-297 840 l-83 233 -71 -2 c-39 -2 -78 -4 -86 -6z"/>
<path d="M6435 4287 c-168 -56 -237 -196 -165 -336 24 -47 56 -73 176 -142
155 -89 191 -124 179 -179 -24 -111 -252 -59 -331 75 -14 25 -30 45 -35 45 -5
0 -9 -49 -9 -108 l0 -108 63 -23 c175 -61 349 -38 445 60 41 42 56 88 57 174
0 58 -4 78 -27 116 -32 54 -57 74 -202 160 -110 64 -146 101 -146 146 0 34 27
53 74 53 65 0 113 -25 184 -96 35 -35 66 -64 68 -64 3 0 3 41 2 92 l-3 92 -70
25 c-84 29 -202 37 -260 18z"/>
<path d="M7065 4275 c-137 -55 -200 -198 -139 -316 22 -43 94 -100 210 -166
143 -81 174 -115 154 -169 -14 -35 -72 -58 -133 -51 -78 10 -157 66 -204 145
-14 23 -29 42 -34 42 -5 0 -9 -45 -9 -100 0 -120 6 -129 105 -159 132 -41 294
-22 381 44 71 54 100 165 70 268 -21 73 -75 127 -197 197 -156 90 -208 153
-159 192 58 47 186 5 268 -88 26 -30 50 -54 55 -54 4 0 7 38 7 85 l0 85 -40
20 c-106 54 -239 64 -335 25z"/>
<path d="M8156 4284 c-122 -38 -186 -115 -186 -227 0 -103 58 -171 215 -254
144 -75 186 -119 171 -178 -14 -56 -123 -73 -211 -31 -48 22 -120 90 -144 135
-23 42 -31 20 -31 -85 l0 -105 43 -19 c67 -30 135 -42 227 -42 192 0 314 100
314 257 0 117 -54 185 -216 271 -150 79 -210 154 -158 196 59 48 194 3 265
-89 22 -28 43 -52 48 -52 4 -1 7 39 7 88 l0 89 -48 20 c-102 44 -207 53 -296
26z"/>
<path d="M9405 4287 c-128 -43 -198 -133 -160 -207 13 -24 22 -30 49 -30 43 0
63 24 76 89 5 29 12 56 15 60 11 18 66 33 99 27 71 -13 102 -89 94 -226 l-3
-55 -79 -7 c-187 -17 -295 -93 -312 -221 -13 -91 51 -198 135 -226 74 -24 178
-9 230 34 37 32 41 31 41 -5 l0 -30 125 0 126 0 -15 28 c-11 21 -15 91 -18
312 -3 267 -5 287 -25 325 -48 90 -130 135 -257 141 -50 3 -96 -1 -121 -9z
m175 -537 l0 -110 -32 -20 c-78 -47 -166 -6 -175 80 -9 94 59 154 180 159 l27
1 0 -110z"/>
<path d="M10383 4289 c-58 -11 -105 -35 -139 -69 -16 -16 -32 -30 -36 -30 -5
0 -8 20 -8 45 l0 45 -139 0 -140 0 22 -47 c21 -46 22 -60 22 -358 0 -170 -4
-327 -8 -347 l-8 -38 140 0 139 0 -10 38 c-12 43 -17 534 -6 573 9 32 52 52
115 53 61 1 98 -39 108 -116 12 -93 2 -500 -13 -525 l-13 -23 147 0 c135 0
146 1 139 18 -19 49 -25 136 -25 352 0 252 -5 287 -51 352 -24 33 -102 73
-159 81 -19 3 -54 1 -77 -4z"/>
<path d="M7565 4263 c21 -50 25 -113 24 -393 0 -229 -3 -314 -13 -342 l-14
-38 140 0 139 0 -8 38 c-4 20 -8 198 -8 395 l0 357 -134 0 c-123 0 -133 -1
-126 -17z"/>
</g>
</svg>
